<svg xmlns="http://www.w3.org/2000/svg" viewBox="0 0 48 64">
  <path d="M24 0C13 0 4 9 4 20c0 15 20 44 20 44s20-29 20-44C44 9 35 0 24 0z" fill="#2e5a8b" stroke="#101f2f" stroke-width="2"/>
  <g fill="#e8f1fb">
    <path d="M11 24l2-6h5l2-3h8l2 3h5l2 6v3H11z"/>
    <circle cx="17.5" cy="27" r="2.6" fill="#1c1c1c"/>
    <circle cx="30.5" cy="27" r="2.6" fill="#1c1c1c"/>
  </g>
  <g stroke="#e8f1fb" stroke-width="2.6" stroke-linecap="round" fill="none">
    <path d="M28 11c-1.4-1.4-3.6-1.4-5 0-1.1 1.1-1.3 2.8-.6 4.1l-6.2 6.2 2.5 2.5 6.2-6.2c1.3.7 3 .5 4.1-.6 1.4-1.4 1.4-3.6 0-5z"/>
  </g>
</svg>
